<svg width="60" height="36" viewBox="0 0 60 36" fill="none" xmlns="http://www.w3.org/2000/svg">
<path d="M43.6252 21.3732H59.9932V17.8024H53.8348V4.24805C53.8348 1.99922 52.3734 0.5 50.1371 0.5V4.02998H43.6932V7.60086H46.718C48.4242 7.60086 49.6749 6.74221 50.1371 5.3861V17.8024H43.6252V21.3732ZM34.1634 18.0204H29.9286C27.8283 18.0204 26.1901 16.344 26.1901 14.3133V11.1036C26.1901 9.07282 27.8283 7.39642 29.9286 7.39642H34.1634C36.2977 7.39642 37.9359 9.07282 37.9359 11.1036V14.3133C37.9359 16.3372 36.2977 18.0204 34.1634 18.0204ZM22.3496 12.6982C22.3496 18.0886 26.2649 21.7276 31.6755 21.7276H32.4233C37.8339 21.7276 41.7832 18.0886 41.7832 12.6982C41.7832 7.30783 37.8271 3.67562 32.4165 3.67562H31.6687C26.2649 3.67562 22.3496 7.31464 22.3496 12.6982ZM13.3092 31.786H6.79733C5.05041 31.786 3.8065 30.7161 3.8065 29.251V28.9648C3.8065 27.4655 5.05041 26.3616 6.79733 26.3616H13.3092C15.0561 26.3616 16.334 27.4655 16.334 28.9648V29.251C16.334 30.7161 15.0561 31.786 13.3092 31.786ZM12.0992 16.7325H7.93248C5.90688 16.7325 4.26872 15.1992 4.26872 13.2025V10.9877C4.26872 8.95697 5.90688 7.38279 7.93248 7.38279H12.0992C14.1248 7.38279 15.763 8.95016 15.763 10.9877V13.1616C15.763 15.1992 14.1248 16.7325 12.0992 16.7325ZM20.1745 29.0056C20.1745 25.1145 17.5031 22.8316 11.9565 22.8316H4.98244C4.12598 22.8316 3.59579 22.2932 3.59579 21.6186C3.59579 20.903 4.13278 20.3715 4.98244 20.3715H10.2504C15.695 20.3715 19.6103 16.9097 19.6103 11.8464V3.96184C18.0809 3.96184 16.7622 4.9227 16.1912 6.24474C14.7706 4.63649 12.5954 3.67562 9.82214 3.67562H9.25116C4.34349 3.67562 0.428232 7.02843 0.428232 11.9895C0.428232 14.5245 1.46143 16.4463 3.16755 17.7342C1.35267 18.2658 0.0679733 19.7309 0.0679733 21.6186C0.0679733 23.3699 1.13515 24.7601 2.73932 25.3666C1.03319 26.3275 0 27.8267 0 29.8643C0 33.2921 3.34428 35.5 9.89011 35.5H10.2844C16.8302 35.5 20.1745 33.183 20.1745 29.0056Z" fill="#114954"/>
</svg>